<svg xmlns="http://www.w3.org/2000/svg" viewBox="0 0 360 240" fill="none" stroke="currentColor" stroke-width="1.6" stroke-linecap="round" stroke-linejoin="round" vector-effect="non-scaling-stroke" aria-hidden="true">
  <path d="M1.28 0.65 L23.41 1.23 L45 0.88 L67.64 2.02 L92.13 0.89 L114.24 0.93 L135.08 1.08 L156.64 2.72 L180.2 2.92 L201.76 2.52 L224.69 0.84 L246.47 1.05 L268.68 0.79 L290.03 0.46 L311.93 0.44 L335.24 0.62 L359 1.03 L358.12 22.28 L358.63 46.21 L356.8 67.25 L357.29 87.43 L359.2 110.24 L358.52 129.38 L358.33 151.86 L357 174.8 L358.94 195.29 L358.94 215.8 L359.39 237.99 L334.28 237.17 L314.06 236.61 L292.6 236.54 L267.74 238.08 L248.21 236.8 L225.38 236.55 L201.45 237.04 L179.13 239.08 L157.74 239.08 L134.5 239.06 L111.9 237.19 L91.52 237.15 L69.7 236.92 L46.87 237.78 L25.33 239.34 L3.45 236.58 L0.46 215.47 L3.51 194.03 L1.85 174.58 L2.19 153.4 L0.75 129.33 L2.81 110.53 L3.6 89.22 L1.78 67.14 L3.18 43.85 L1.31 24.24 Z" vector-effect="non-scaling-stroke" />
  <path d="M9.46 9.3 L34.96 10.05 L61.22 9.93 L88.46 8.96 L113.43 8.11 L139.73 8.72 L166.82 9.69 L194.12 8.74 L218.48 9.16 L246.26 9.11 L271.5 9.54 L299.54 9.5 L323.67 9.7 L351.38 10.03 L351.81 32.88 L352 59.41 L351.96 83.75 L350.18 108.07 L350.58 134.64 L351.53 157.98 L349.97 184.5 L350.33 208.67 L325.12 207.88 L298.54 208.84 L272.44 209.99 L246.94 209.77 L220.57 208.64 L193.56 209.4 L166.69 208.28 L141.22 208.37 L115.23 208.05 L86.79 208.72 L61.48 210.18 L36.49 208.4 L9.88 207.89 L10.01 184.48 L9.44 158.32 L9.53 133.45 L9.95 109.78 L8.42 84.34 L8.47 59.38 L8.55 34.94 Z" vector-effect="non-scaling-stroke" />
  <path d="M9 218 Q179.2 219.01 351 218" vector-effect="non-scaling-stroke" />
</svg>
